<?xml version="1.0" encoding="UTF-8"?>
<svg version="1.1" xmlns="http://www.w3.org/2000/svg" width="1024" height="1024">
<path d="M0 0 C337.92 0 675.84 0 1024 0 C1024 337.92 1024 675.84 1024 1024 C686.08 1024 348.16 1024 0 1024 C0 686.08 0 348.16 0 0 Z " fill="#FEFEFA" transform="translate(0,0)"/>
<path d="M0 0 C5.39796907 3.88274968 10.43803107 8.17027468 15.4609375 12.51953125 C18.82622634 15.41747375 22.30323223 18.15446807 25.8125 20.875 C30.96175761 24.87516162 35.96604439 29.00893582 40.91796875 33.25 C44.80499614 36.56291438 48.77990506 39.74144438 52.8125 42.875 C58.05447422 46.94894142 63.15682765 51.15520638 68.20581055 55.46533203 C72.08424499 58.77248755 76.02586109 61.98216719 80.01953125 65.1484375 C83.63739529 68.03260883 87.22444092 70.95388802 90.8125 73.875 C95.23668131 77.4752904 99.66533768 81.06865046 104.125 84.625 C108.44297091 88.06926777 112.72222415 91.55894032 116.9921875 95.0625 C118.95287441 96.67015464 120.91664668 98.27405073 122.8828125 99.875 C123.87023437 100.679375 124.85765625 101.48375 125.875 102.3125 C126.77347656 103.04339844 127.67195313 103.77429688 128.59765625 104.52734375 C133.00320205 108.20251688 133.55993111 111.28563719 134.625 116.75 C136.23093372 124.39463784 138.30250815 131.3550163 141.8125 138.375 C142.30363281 139.35726562 142.79476563 140.33953125 143.30078125 141.3515625 C153.76089382 160.67406161 171.03697608 173.56468126 191.51171875 180.65625 C197.58292778 182.40336051 202.99588083 183.48277196 209.33984375 183.34375 C221.8258791 183.09939471 228.95363179 184.26240868 238.32202148 192.91943359 C239.57155942 194.13310501 240.80734785 195.36111947 242.02783203 196.60400391 C243.78631315 198.34901376 245.61478272 199.92613233 247.5234375 201.50390625 C258.70929963 210.95397689 265.65889248 225.69722552 267.08656371 240.14930069 C267.19108946 242.93745733 267.20820894 245.71074334 267.1867218 248.50074768 C267.19069621 249.55271251 267.19467061 250.60467734 267.19876546 251.6885199 C267.2083109 255.17733543 267.19661738 258.66573753 267.18481445 262.15454102 C267.18724496 264.67045237 267.19096678 267.18636277 267.19587708 269.70227051 C267.20428196 275.80445989 267.19880399 281.90649846 267.18661413 288.00867719 C267.17293024 295.12632685 267.17463759 302.24394879 267.17674746 309.36160826 C267.17993091 322.06718697 267.16830635 334.77270945 267.14868164 347.47827148 C267.12967626 359.7862316 267.12259596 372.09412586 267.12817383 384.40209961 C267.13424143 397.8302772 267.13403691 411.2584259 267.122688 424.6866011 C267.1214808 426.12034635 267.12027482 427.55409159 267.11907005 428.98783684 C267.11816475 430.04576982 267.11816475 430.04576982 267.11724115 431.12507518 C267.11337377 436.07785358 267.11375102 441.03062117 267.1156559 445.98340034 C267.1180084 452.65735887 267.10939616 459.33122119 267.0935955 466.0051651 C267.08936442 468.45002583 267.08849416 470.89489512 267.09128571 473.33975792 C267.09452533 476.68534194 267.08538085 480.03067747 267.07319641 483.37623596 C267.07697573 484.33598298 267.08075506 485.29573 267.08464891 486.28456026 C266.95624226 506.31405091 259.27285927 523.2249598 245.61328125 537.734375 C234.53030253 548.183599 221.62379089 554.23449706 206.8125 557.375 C206.09175452 557.54927074 205.37100905 557.72354149 204.6284228 557.90309316 C201.08581762 558.49678118 197.61119203 558.51381107 194.03117275 558.50363445 C193.25065842 558.50538749 192.47014409 558.50714053 191.66597781 558.50894669 C189.04084562 558.51361236 186.41576868 558.51113971 183.79063416 558.50871277 C181.89333776 558.51058047 179.99604175 558.512881 178.09874636 558.51557809 C172.87708057 558.52170782 167.65543076 558.52156111 162.43376219 558.52038372 C156.80507193 558.52018 151.17638684 558.52569575 145.54769897 558.53044128 C134.51593559 558.53875533 123.48417754 558.54149649 112.45241129 558.54205366 C103.48476372 558.54252856 94.51711791 558.54458201 85.5494709 558.54775429 C64.26724079 558.55512966 42.98501216 558.56127886 21.70278072 558.56075573 C21.02201485 558.56074015 20.34124897 558.56072457 19.63985382 558.56070852 C16.18945428 558.56062541 12.73905475 558.56052637 9.28865521 558.56042381 C8.6033961 558.56040387 7.91813698 558.56038392 7.21211243 558.56036337 C5.82634972 558.56032294 4.440587 558.56028114 3.05482429 558.56023798 C-18.49560241 558.5596255 -40.04601336 558.5671263 -61.59643555 558.58081055 C-85.81015868 558.59617963 -110.02386817 558.60476357 -134.23759741 558.60384732 C-147.05715394 558.60351531 -159.87669273 558.60626416 -172.69624519 558.61702538 C-183.61327908 558.62613067 -194.53028717 558.62830545 -205.44732321 558.62151595 C-211.01632042 558.61825063 -216.58526814 558.61819452 -222.15426064 558.6268692 C-227.25633533 558.63473471 -232.35832131 558.63330216 -237.46039384 558.62458507 C-239.30230343 558.62305018 -241.14421964 558.62486582 -242.98612142 558.63044515 C-266.81578655 558.69782403 -286.13039454 554.01619307 -303.9375 537.1875 C-317.89600874 522.60548438 -324.52620557 504.40913692 -324.44819641 484.45852661 C-324.45202196 483.40489264 -324.45584751 482.35125868 -324.45978898 481.26569641 C-324.4700513 477.75927319 -324.46613971 474.25301579 -324.4621582 470.74658203 C-324.46650841 468.2227361 -324.47169259 465.69889149 -324.47764587 463.17504883 C-324.48962705 457.04554936 -324.49219133 450.91611033 -324.48984561 444.78660144 C-324.48805807 439.80124004 -324.48982142 434.81589189 -324.49407005 429.83053207 C-324.49466524 429.11930845 -324.49526043 428.40808482 -324.49587366 427.67530897 C-324.49708549 426.23016708 -324.49829962 424.78502519 -324.49951603 423.33988331 C-324.51037691 409.806198 -324.50823594 396.27253764 -324.50213119 382.73885094 C-324.49696307 370.37709689 -324.50821727 358.01542166 -324.52722941 345.6536832 C-324.54663428 332.93840169 -324.55485918 320.22315742 -324.55110615 307.50786102 C-324.54919816 300.37809966 -324.5516424 293.24840538 -324.56582069 286.11865616 C-324.57902213 279.41268956 -324.57643862 272.70690583 -324.56340981 266.00093079 C-324.56104825 263.5451998 -324.56376356 261.08945767 -324.57203293 258.63373947 C-324.58253744 255.27079208 -324.57436963 251.90836972 -324.5617218 248.54544067 C-324.57278323 247.10230663 -324.57278323 247.10230663 -324.58406812 245.63001835 C-324.45973913 229.81935007 -318.52882723 216.18724346 -307.63671875 204.77734375 C-300.96929232 198.23752357 -294.03407662 192.12595057 -286.6953125 186.3515625 C-284.12571003 184.32629949 -281.59133153 182.26340648 -279.0625 180.1875 C-269.37625303 172.24615142 -259.66319126 164.33790382 -249.87109375 156.52734375 C-240.88976211 149.32397587 -231.98067487 142.02994742 -223.07421875 134.734375 C-218.18233059 130.73613352 -213.27641075 126.7551834 -208.37109375 122.7734375 C-205.61038746 120.53217397 -202.85272 118.28725796 -200.09765625 116.0390625 C-193.77576775 110.88422147 -187.43490444 105.76330212 -181 100.75 C-175.91850834 96.78978317 -170.97955057 92.69288691 -166.08569336 88.50390625 C-161.58039138 84.66506906 -156.95187205 81.00200473 -152.28393555 77.36376953 C-146.84509608 73.12234034 -141.50928016 68.76230091 -136.1875 64.375 C-124.79336681 55.03042126 -113.38327126 45.70384454 -101.859375 36.51953125 C-99.06433902 34.27614711 -96.28519239 32.0140855 -93.50732422 29.74951172 C-86.60281368 24.12198544 -79.65996121 18.5518091 -72.6328125 13.078125 C-70.25056226 11.2196705 -67.89607639 9.3315273 -65.5546875 7.421875 C-45.61078609 -8.76160527 -22.91974502 -14.71465797 0 0 Z " fill="#FEFDFA" transform="translate(539.1875,252.625)"/>
<path d="M0 0 C5.39796907 3.88274968 10.43803107 8.17027468 15.4609375 12.51953125 C18.82622634 15.41747375 22.30323223 18.15446807 25.8125 20.875 C30.96175761 24.87516162 35.96604439 29.00893582 40.91796875 33.25 C44.80499614 36.56291438 48.77990506 39.74144438 52.8125 42.875 C58.05447422 46.94894142 63.15682765 51.15520638 68.20581055 55.46533203 C72.08424499 58.77248755 76.02586109 61.98216719 80.01953125 65.1484375 C83.63739529 68.03260883 87.22444092 70.95388802 90.8125 73.875 C95.23668131 77.4752904 99.66533768 81.06865046 104.125 84.625 C108.44297091 88.06926777 112.72222415 91.55894032 116.9921875 95.0625 C118.95287441 96.67015464 120.91664668 98.27405073 122.8828125 99.875 C123.87023437 100.679375 124.85765625 101.48375 125.875 102.3125 C126.77347656 103.04339844 127.67195313 103.77429688 128.59765625 104.52734375 C133.00320205 108.20251688 133.55993111 111.28563719 134.625 116.75 C136.23093372 124.39463784 138.30250815 131.3550163 141.8125 138.375 C142.30363281 139.35726562 142.79476563 140.33953125 143.30078125 141.3515625 C153.76089382 160.67406161 171.03697608 173.56468126 191.51171875 180.65625 C197.58292778 182.40336051 202.99588083 183.48277196 209.33984375 183.34375 C221.8258791 183.09939471 228.95363179 184.26240868 238.32202148 192.91943359 C239.57155942 194.13310501 240.80734785 195.36111947 242.02783203 196.60400391 C243.78631315 198.34901376 245.61478272 199.92613233 247.5234375 201.50390625 C258.70929963 210.95397689 265.65889248 225.69722552 267.08656371 240.14930069 C267.19108946 242.93745733 267.20820894 245.71074334 267.1867218 248.50074768 C267.19069621 249.55271251 267.19467061 250.60467734 267.19876546 251.6885199 C267.2083109 255.17733543 267.19661738 258.66573753 267.18481445 262.15454102 C267.18724496 264.67045237 267.19096678 267.18636277 267.19587708 269.70227051 C267.20428196 275.80445989 267.19880399 281.90649846 267.18661413 288.00867719 C267.17293024 295.12632685 267.17463759 302.24394879 267.17674746 309.36160826 C267.17993091 322.06718697 267.16830635 334.77270945 267.14868164 347.47827148 C267.12967626 359.7862316 267.12259596 372.09412586 267.12817383 384.40209961 C267.13424143 397.8302772 267.13403691 411.2584259 267.122688 424.6866011 C267.1214808 426.12034635 267.12027482 427.55409159 267.11907005 428.98783684 C267.11816475 430.04576982 267.11816475 430.04576982 267.11724115 431.12507518 C267.11337377 436.07785358 267.11375102 441.03062117 267.1156559 445.98340034 C267.1180084 452.65735887 267.10939616 459.33122119 267.0935955 466.0051651 C267.08936442 468.45002583 267.08849416 470.89489512 267.09128571 473.33975792 C267.09452533 476.68534194 267.08538085 480.03067747 267.07319641 483.37623596 C267.07697573 484.33598298 267.08075506 485.29573 267.08464891 486.28456026 C266.95624226 506.31405091 259.27285927 523.2249598 245.61328125 537.734375 C234.53030253 548.183599 221.62379089 554.23449706 206.8125 557.375 C206.09175452 557.54927074 205.37100905 557.72354149 204.6284228 557.90309316 C201.08581762 558.49678118 197.61119203 558.51381107 194.03117275 558.50363445 C193.25065842 558.50538749 192.47014409 558.50714053 191.66597781 558.50894669 C189.04084562 558.51361236 186.41576868 558.51113971 183.79063416 558.50871277 C181.89333776 558.51058047 179.99604175 558.512881 178.09874636 558.51557809 C172.87708057 558.52170782 167.65543076 558.52156111 162.43376219 558.52038372 C156.80507193 558.52018 151.17638684 558.52569575 145.54769897 558.53044128 C134.51593559 558.53875533 123.48417754 558.54149649 112.45241129 558.54205366 C103.48476372 558.54252856 94.51711791 558.54458201 85.5494709 558.54775429 C64.26724079 558.55512966 42.98501216 558.56127886 21.70278072 558.56075573 C21.02201485 558.56074015 20.34124897 558.56072457 19.63985382 558.56070852 C16.18945428 558.56062541 12.73905475 558.56052637 9.28865521 558.56042381 C8.6033961 558.56040387 7.91813698 558.56038392 7.21211243 558.56036337 C5.82634972 558.56032294 4.440587 558.56028114 3.05482429 558.56023798 C-18.49560241 558.5596255 -40.04601336 558.5671263 -61.59643555 558.58081055 C-85.81015868 558.59617963 -110.02386817 558.60476357 -134.23759741 558.60384732 C-147.05715394 558.60351531 -159.87669273 558.60626416 -172.69624519 558.61702538 C-183.61327908 558.62613067 -194.53028717 558.62830545 -205.44732321 558.62151595 C-211.01632042 558.61825063 -216.58526814 558.61819452 -222.15426064 558.6268692 C-227.25633533 558.63473471 -232.35832131 558.63330216 -237.46039384 558.62458507 C-239.30230343 558.62305018 -241.14421964 558.62486582 -242.98612142 558.63044515 C-266.81578655 558.69782403 -286.13039454 554.01619307 -303.9375 537.1875 C-317.89600874 522.60548438 -324.52620557 504.40913692 -324.44819641 484.45852661 C-324.45202196 483.40489264 -324.45584751 482.35125868 -324.45978898 481.26569641 C-324.4700513 477.75927319 -324.46613971 474.25301579 -324.4621582 470.74658203 C-324.46650841 468.2227361 -324.47169259 465.69889149 -324.47764587 463.17504883 C-324.48962705 457.04554936 -324.49219133 450.91611033 -324.48984561 444.78660144 C-324.48805807 439.80124004 -324.48982142 434.81589189 -324.49407005 429.83053207 C-324.49466524 429.11930845 -324.49526043 428.40808482 -324.49587366 427.67530897 C-324.49708549 426.23016708 -324.49829962 424.78502519 -324.49951603 423.33988331 C-324.51037691 409.806198 -324.50823594 396.27253764 -324.50213119 382.73885094 C-324.49696307 370.37709689 -324.50821727 358.01542166 -324.52722941 345.6536832 C-324.54663428 332.93840169 -324.55485918 320.22315742 -324.55110615 307.50786102 C-324.54919816 300.37809966 -324.5516424 293.24840538 -324.56582069 286.11865616 C-324.57902213 279.41268956 -324.57643862 272.70690583 -324.56340981 266.00093079 C-324.56104825 263.5451998 -324.56376356 261.08945767 -324.57203293 258.63373947 C-324.58253744 255.27079208 -324.57436963 251.90836972 -324.5617218 248.54544067 C-324.57278323 247.10230663 -324.57278323 247.10230663 -324.58406812 245.63001835 C-324.45973913 229.81935007 -318.52882723 216.18724346 -307.63671875 204.77734375 C-300.96929232 198.23752357 -294.03407662 192.12595057 -286.6953125 186.3515625 C-284.12571003 184.32629949 -281.59133153 182.26340648 -279.0625 180.1875 C-269.37625303 172.24615142 -259.66319126 164.33790382 -249.87109375 156.52734375 C-240.88976211 149.32397587 -231.98067487 142.02994742 -223.07421875 134.734375 C-218.18233059 130.73613352 -213.27641075 126.7551834 -208.37109375 122.7734375 C-205.61038746 120.53217397 -202.85272 118.28725796 -200.09765625 116.0390625 C-193.77576775 110.88422147 -187.43490444 105.76330212 -181 100.75 C-175.91850834 96.78978317 -170.97955057 92.69288691 -166.08569336 88.50390625 C-161.58039138 84.66506906 -156.95187205 81.00200473 -152.28393555 77.36376953 C-146.84509608 73.12234034 -141.50928016 68.76230091 -136.1875 64.375 C-124.79336681 55.03042126 -113.38327126 45.70384454 -101.859375 36.51953125 C-99.06433902 34.27614711 -96.28519239 32.0140855 -93.50732422 29.74951172 C-86.60281368 24.12198544 -79.65996121 18.5518091 -72.6328125 13.078125 C-70.25056226 11.2196705 -67.89607639 9.3315273 -65.5546875 7.421875 C-45.61078609 -8.76160527 -22.91974502 -14.71465797 0 0 Z M-50.8125 52.9375 C-52.03039227 54.0128677 -53.25050591 55.08572405 -54.47265625 56.15625 C-55.0877002 56.69507813 -55.70274414 57.23390625 -56.33642578 57.7890625 C-59.23202785 60.26991598 -62.23394607 62.60576437 -65.25 64.9375 C-69.82218574 68.48199261 -74.29385331 72.11140078 -78.6875 75.875 C-83.71974633 80.1829834 -88.86658302 84.31421872 -94.09106445 88.38623047 C-99.52991723 92.62767003 -104.86524444 96.98826647 -110.1875 101.375 C-112.02025076 102.87571175 -113.85358895 104.37570638 -115.6875 105.875 C-118.37959947 108.07728166 -121.07142614 110.27988636 -123.76171875 112.484375 C-126.56848753 114.78349203 -129.37751173 117.07981874 -132.1875 119.375 C-132.78723633 119.86516602 -133.38697266 120.35533203 -134.00488281 120.86035156 C-141.07878172 126.6383777 -148.16915807 132.38702839 -155.375 138 C-160.45894837 141.96205749 -165.40110944 146.06001792 -170.29589844 150.25268555 C-174.1595616 153.54661617 -178.11333305 156.70117242 -182.125 159.8125 C-187.62953256 164.08502924 -192.9442523 168.53835105 -198.21191406 173.09863281 C-202.32056356 176.65049186 -206.50524192 180.08380243 -210.765625 183.453125 C-215.28410903 187.03876071 -219.72850963 190.71585677 -224.1875 194.375 C-231.19692918 200.12060786 -238.22336541 205.84485727 -245.25976562 211.55737305 C-250.13528099 215.5166881 -254.99994682 219.48883432 -259.85546875 223.47265625 C-261.47088527 224.79042484 -263.1182757 226.06958787 -264.7890625 227.31640625 C-267.29493348 229.46721082 -268.72268742 231.40607326 -270.375 234.25 C-270.86355469 235.07242188 -271.35210937 235.89484375 -271.85546875 236.7421875 C-275.07004672 243.09592812 -275.47780961 248.50670861 -275.45492554 255.49569702 C-275.45945665 256.51198358 -275.46398776 257.52827014 -275.46865618 258.57535326 C-275.48131169 261.97915549 -275.47967905 265.38279795 -275.47802734 268.78662109 C-275.48401182 271.22769883 -275.49081718 273.66877467 -275.49838257 276.10984802 C-275.51422118 282.05138306 -275.52049125 287.99288066 -275.52160732 293.93443249 C-275.52255859 298.76498572 -275.52667281 303.59552589 -275.53300858 308.42607498 C-275.55061516 322.12915199 -275.55984825 335.83219771 -275.55834763 349.53528611 C-275.55822776 350.64268765 -275.55822776 350.64268765 -275.55810547 351.77246094 C-275.55802371 352.51163252 -275.55794195 353.25080411 -275.55785771 354.01237483 C-275.55704476 365.99234967 -275.57618616 377.9721988 -275.6043822 389.95213728 C-275.63312204 402.26046989 -275.64692192 414.5687412 -275.64519465 426.87710822 C-275.64453117 433.78438162 -275.65000493 440.69152319 -275.67155075 447.59876633 C-275.69168374 454.09455396 -275.69107761 460.59013515 -275.67651749 467.08593941 C-275.6744247 469.46917311 -275.67915813 471.85242412 -275.6912384 474.23562813 C-275.7066695 477.49085856 -275.69739593 480.74512606 -275.68197632 484.00033569 C-275.69226344 484.94178637 -275.70255057 485.88323704 -275.71314943 486.85321653 C-275.63894239 493.94986176 -273.9185438 499.2016819 -269.2578125 504.6171875 C-268.61585938 505.15601563 -267.97390625 505.69484375 -267.3125 506.25 C-266.67570312 506.80429687 -266.03890625 507.35859375 -265.3828125 507.9296875 C-259.30733361 511.92955794 -253.10588613 511.64126882 -246.1015625 511.5703125 C-245.04464203 511.5674826 -243.98772156 511.56465271 -242.89877319 511.56173706 C-239.53656499 511.5505785 -236.17462714 511.52548159 -232.8125 511.5 C-230.52734761 511.48996462 -228.24219102 511.48083975 -225.95703125 511.47265625 C-220.36709589 511.45065332 -214.77731727 511.41721873 -209.1875 511.375 C-209.14786133 510.57505615 -209.10822266 509.7751123 -209.06738281 508.95092773 C-207.78672381 484.37253429 -205.31566059 462.5117935 -188.1875 443.375 C-187.51074219 442.61703125 -186.83398438 441.8590625 -186.13671875 441.078125 C-176.29300634 430.65742767 -163.02959847 423.12254779 -149.1875 419.375 C-148.56319092 419.20581055 -147.93888184 419.03662109 -147.2956543 418.86230469 C-127.07133361 413.83041629 -105.40137906 417.74206509 -87.1875 427.375 C-68.28146705 438.82199235 -55.78668592 454.64768812 -49.12890625 475.7265625 C-47.50659781 482.44994385 -47.44514994 489.49198652 -47.0625 496.375 C-46.97595087 497.83207243 -46.88871711 499.28910436 -46.80078125 500.74609375 C-46.58718081 504.2886369 -46.38766965 507.83157137 -46.1875 511.375 C-38.2675 511.375 -30.3475 511.375 -22.1875 511.375 C-21.58377508 478.28193055 -25.65040944 450.95556091 -48.1875 425.375 C-48.93128906 424.4984375 -49.67507813 423.621875 -50.44140625 422.71875 C-55.22084064 417.19954229 -60.24582829 412.61704458 -66.1875 408.375 C-59.85655112 384.31739425 -38.91644817 364.04858238 -18.19238281 351.53613281 C8.804092 335.90105802 42.20654028 331.44711462 72.546875 339.1171875 C103.76345238 347.96609151 128.91868709 367.75007677 145.04736328 395.78540039 C155.78014434 415.23501685 158.88341104 435.63662213 159.12890625 457.56640625 C159.14951467 459.12296552 159.17051205 460.67951969 159.19187927 462.23606873 C159.246699 466.3047773 159.29628264 470.37353296 159.34472656 474.44232178 C159.39523711 478.60546997 159.45076786 482.76855098 159.50585938 486.93164062 C159.61294938 495.07937004 159.71450048 503.22715619 159.8125 511.375 C165.18354009 511.47464824 170.55402986 511.54683292 175.92578125 511.59472656 C177.74911892 511.61471364 179.57239356 511.64191286 181.39550781 511.67675781 C197.25622464 512.18720938 197.25622464 512.18720938 211.25 505.48046875 C212.0234375 504.53107422 212.0234375 504.53107422 212.8125 503.5625 C213.34875 502.93730469 213.885 502.31210937 214.4375 501.66796875 C218.12862944 495.51259096 218.10294564 489.15529425 218.07992554 482.18547058 C218.08672221 480.66800113 218.08672221 480.66800113 218.09365618 479.11987573 C218.10629356 475.73766664 218.10468022 472.35561872 218.10302734 468.97338867 C218.10901298 466.54526055 218.11581861 464.11713434 218.12338257 461.68901062 C218.13921177 455.78236824 218.14549078 449.87576351 218.14660732 443.96910425 C218.14755916 439.16576602 218.1516762 434.36244091 218.15800858 429.55910683 C218.17561271 415.92740679 218.1848487 402.29573819 218.18334763 388.6640267 C218.18326772 387.92983685 218.1831878 387.19564701 218.18310547 386.43920898 C218.18298283 385.33657271 218.18298283 385.33657271 218.18285771 384.21166096 C218.18204496 372.30099901 218.20118183 360.39046358 218.2293822 348.47983821 C218.2581394 336.23700496 218.27192095 323.99423335 218.27019465 311.75136548 C218.26953174 304.88316681 218.27498037 298.01510077 218.29655075 291.1469326 C218.31671156 284.68641855 218.3160599 278.22611198 218.30151749 271.76558113 C218.29942786 269.39769964 218.30413935 267.02980066 218.3162384 264.66194916 C218.33171446 261.42279874 218.32236627 258.1846106 218.30697632 254.94548035 C218.32240701 253.54890246 218.32240701 253.54890246 218.33814943 252.12411088 C218.2273107 241.52568793 214.03740694 233.00517251 206.8125 225.375 C204.55118344 223.36029652 202.21949878 221.50624069 199.8125 219.66796875 C196.10351899 216.83310957 192.49144425 213.88890458 188.875 210.9375 C187.48052923 209.80331105 186.08599888 208.66919536 184.69140625 207.53515625 C180.68812147 204.2754078 176.69297248 201.00579061 172.69921875 197.734375 C166.41622301 192.5991525 160.11221894 187.48968124 153.8125 182.375 C138.43687692 169.89167945 138.43687692 169.89167945 132.3125 164.875 C118.06174316 153.19652332 118.06174316 153.19652332 103.625 141.75 C98.54185864 137.78857143 93.60077552 133.6909514 88.70629883 129.49951172 C84.25429722 125.7046943 79.67288491 122.09722879 75.05395508 118.50878906 C70.38475932 114.86498277 65.86156425 111.07083238 61.35986328 107.22314453 C57.66063394 104.06908869 53.88434672 101.0510181 50.02734375 98.09375 C46.6123947 95.44370135 43.28479893 92.68945873 39.9453125 89.9453125 C36.34983409 86.99130276 32.73753231 84.0581111 29.125 81.125 C28.44985352 80.57666504 27.77470703 80.02833008 27.07910156 79.46337891 C24.99037042 77.76708499 22.90146271 76.07100874 20.8125 74.375 C18.04147718 72.12523322 15.27067158 69.87519932 12.5 67.625 C11.83331299 67.08383545 11.16662598 66.5426709 10.47973633 65.98510742 C7.52808424 63.5878284 4.57941581 61.18732156 1.64453125 58.76953125 C-11.5333514 47.0210322 -11.5333514 47.0210322 -28.0625 42.9375 C-28.73152344 42.91751953 -29.40054688 42.89753906 -30.08984375 42.87695312 C-38.70512513 42.88525301 -44.65719792 47.34845304 -50.8125 52.9375 Z " fill="#71A5AE" transform="translate(539.1875,252.625)"/>
<path d="M0 0 C13.83891497 11.82942868 24.13734889 28.60632032 26 47 C27.30336001 68.94765153 21.0240443 86.94852412 7.35546875 104.05859375 C-4.51301109 117.0688514 -23.61029737 124.87619691 -40.81640625 126.3203125 C-60.3221406 126.89232817 -78.90113784 120.2770625 -93.61328125 107.32421875 C-99.87715239 101.22437697 -104.36566928 94.75812842 -108.3125 87 C-108.63822998 86.3598999 -108.96395996 85.7197998 -109.29956055 85.06030273 C-113.77968993 75.82389555 -115.51529116 67.38419896 -115.375 57.125 C-115.36629883 56.06651855 -115.35759766 55.00803711 -115.34863281 53.91748047 C-115.21072975 46.58488052 -114.5483276 39.92480325 -112 33 C-111.74476563 32.18402344 -111.48953125 31.36804688 -111.2265625 30.52734375 C-104.86386664 12.11054977 -89.75576812 -1.05452003 -72.8203125 -9.60546875 C-48.88008629 -20.20756893 -20.69827033 -15.65714432 0 0 Z " fill="#71A5AE" transform="translate(618,434)"/>
<path d="M0 0 C1.06186523 0.00829834 2.12373047 0.01659668 3.21777344 0.02514648 C18.03943335 0.3440505 31.45528271 5.40785158 42.53515625 15.59375 C55.3485095 29.37029381 62.27851958 45.45201344 61.59765625 64.34765625 C60.46033583 81.50529662 52.69142453 95.96078486 40.25 107.4375 C26.41908789 118.22561145 10.60235588 122.78674814 -6.75 121.4375 C-23.76747601 118.54937145 -38.35797994 110.29865232 -48.9140625 96.63671875 C-52.71356211 90.92130125 -55.59013767 84.94779594 -57.75 78.4375 C-58.10835937 77.3959375 -58.46671875 76.354375 -58.8359375 75.28125 C-59.96999189 70.51240589 -60.09311562 66.07156596 -60.0625 61.1875 C-60.05686035 60.25236572 -60.0512207 59.31723145 -60.04541016 58.35375977 C-59.76838667 42.60867741 -53.59765479 28.90502078 -42.75 17.4375 C-30.79505493 6.12876818 -16.38605435 -0.16469048 0 0 Z " fill="#FDB25C" transform="translate(753.75,294.5625)"/>
<path d="M0 0 C1.40958984 0.65355469 1.40958984 0.65355469 2.84765625 1.3203125 C16.71353937 8.30093591 26.33036238 19.67739134 31.5625 34.25 C35.66482386 49.66194147 33.34213531 65.99370558 25.91796875 79.98046875 C17.11453828 93.84004462 4.28645158 102.96822407 -11.75976562 106.60449219 C-23.14665941 108.61481999 -34.42854665 107.76459869 -45 103 C-45.71027344 102.71125 -46.42054688 102.4225 -47.15234375 102.125 C-60.07932464 96.39105204 -69.51408743 85.43562797 -74.9921875 72.640625 C-75.32476562 71.76921875 -75.65734375 70.8978125 -76 70 C-76.36609375 69.14148438 -76.7321875 68.28296875 -77.109375 67.3984375 C-80.25584093 55.39218591 -79.67110096 39.0780202 -74 28 C-73.56429688 27.13761719 -73.12859375 26.27523437 -72.6796875 25.38671875 C-64.7861093 11.17396456 -52.859312 1.58030817 -37.265625 -3.15234375 C-25.10692049 -5.93653611 -11.29194151 -5.40268227 0 0 Z " fill="#70A5AE" transform="translate(435,541)"/>
<path d="M0 0 C0.66 0.33 1.32 0.66 2 1 C1.113125 1.556875 0.22625 2.11375 -0.6875 2.6875 C-2.99251559 4.21152207 -4.6311544 5.6311544 -6.625 7.625 C-8.779923 9.779923 -10.34895938 10.67447969 -13 12 C-13.33 12.99 -13.66 13.98 -14 15 C-15.6454378 16.68762851 -17.31288577 18.3540349 -19 20 C-19.66 20.99 -20.32 21.98 -21 23 C-21.66 23 -22.32 23 -23 23 C-23.33 23.66 -23.66 24.32 -24 25 C-25.64142963 26.0409066 -27.30712215 27.04504326 -29 28 C-28.21044787 20.5650508 -21.78574896 16.1494233 -16.33544922 11.61523438 C-5.30720475 2.73233055 -5.30720475 2.73233055 0 0 Z " fill="#629DA8" transform="translate(520,604)"/>
<path d="M0 0 C0.66 0.33 1.32 0.66 2 1 C0.59106853 2.63171123 -0.82745958 4.25513945 -2.25 5.875 C-3.03890625 6.77992188 -3.8278125 7.68484375 -4.640625 8.6171875 C-6.74691403 10.74439993 -8.25651526 11.90512306 -11 13 C-11.66 12.34 -12.32 11.68 -13 11 C-8.71 7.37 -4.42 3.74 0 0 Z " fill="#5495A1" transform="translate(398,321)"/>
<path d="M0 0 C0.66 0.33 1.32 0.66 2 1 C1.113125 1.556875 0.22625 2.11375 -0.6875 2.6875 C-2.96319268 4.19394445 -4.59604866 5.59604866 -6.5625 7.5625 C-8.92344329 9.92344329 -11.00325922 11.54212611 -14 13 C-14.66 12.67 -15.32 12.34 -16 12 C-5.85799286 2.64022213 -5.85799286 2.64022213 0 0 Z " fill="#4E929F" transform="translate(520,604)"/>
<path d="M0 0 C0.66 0.33 1.32 0.66 2 1 C-7.04100228 12.11161731 -7.04100228 12.11161731 -14 13 C-9.55618306 8.41283413 -4.79771501 4.21237287 0 0 Z " fill="#5294A1" transform="translate(472,261)"/>
<path d="M0 0 C0.66 0.33 1.32 0.66 2 1 C-5.8929385 10.96355353 -5.8929385 10.96355353 -13 12 C-8.87675353 7.74790208 -4.48717034 3.86364295 0 0 Z " fill="#5195A1" transform="translate(435,291)"/>
<path d="M0 0 C0.33 0.66 0.66 1.32 1 2 C-0.38658979 3.15700194 -1.78472441 4.30017623 -3.1875 5.4375 C-3.96480469 6.07558594 -4.74210937 6.71367187 -5.54296875 7.37109375 C-8.10825071 9.07176557 -9.97328271 9.61830031 -13 10 C-9.52655255 5.36873674 -6.01368293 0.89091599 0 0 Z " fill="#5C99A5" transform="translate(377,340)"/>
<path d="M0 0 C-16.60229249 10.59720797 -16.60229249 10.59720797 -22.2890625 9.59765625 C-22.85367188 9.40042969 -23.41828125 9.20320312 -24 9 C-22.66195312 8.49339844 -22.66195312 8.49339844 -21.296875 7.9765625 C-20.12640625 7.53054688 -18.9559375 7.08453125 -17.75 6.625 C-16.00976562 5.96371094 -16.00976562 5.96371094 -14.234375 5.2890625 C-9.26348757 3.6453361 -9.26348757 3.6453361 -6 0 C-2.49056604 -1.24528302 -2.49056604 -1.24528302 0 0 Z " fill="#45919F" transform="translate(775,798)"/>
<path d="M0 0 C0.66 0.33 1.32 0.66 2 1 C1.3503125 1.5878125 1.3503125 1.5878125 0.6875 2.1875 C-1.12512666 3.98638626 -1.12512666 3.98638626 -2.375 6.5 C-4.23372362 9.35957481 -5.99839562 10.45863559 -9 12 C-9 9 -9 9 -7.03125 6.73828125 C-5.77828125 5.53751953 -5.77828125 5.53751953 -4.5 4.3125 C-3.6646875 3.50425781 -2.829375 2.69601562 -1.96875 1.86328125 C-1.3190625 1.24839844 -0.669375 0.63351562 0 0 Z " fill="#4B8F9D" transform="translate(528,435)"/>
<path d="M0 0 C4.50727647 0.60266785 7.8587963 2.36599794 11.8125 4.5625 C12.7087207 5.0565332 12.7087207 5.0565332 13.62304688 5.56054688 C15.08533998 6.36773267 16.5431399 7.18304917 18 8 C16 9 16 9 12.875 8.0625 C11.92625 7.711875 10.9775 7.36125 10 7 C10 6.34 10 5.68 10 5 C9.01 5.33 8.02 5.66 7 6 C6.67 5.01 6.34 4.02 6 3 C2.99152582 1.77479736 2.99152582 1.77479736 0 1 C0 0.67 0 0.34 0 0 Z " fill="#458F9E" transform="translate(624,596)"/>
<path d="M0 0 C7.75 1.875 7.75 1.875 10 3 C10 3.66 10 4.32 10 5 C11.65 5.33 13.3 5.66 15 6 C12.31485266 7.03274898 11.2078412 7.07566569 8.45703125 6.07421875 C7.58433594 5.61660156 6.71164062 5.15898438 5.8125 4.6875 C4.93207031 4.23761719 4.05164063 3.78773438 3.14453125 3.32421875 C1 2 1 2 0 0 Z " fill="#4C93A0" transform="translate(381,638)"/>
<path d="M0 0 C1.32 0.33 2.64 0.66 4 1 C0.04 4.465 0.04 4.465 -4 8 C-4.66 7.67 -5.32 7.34 -6 7 C-4.02 4.69 -2.04 2.38 0 0 Z " fill="#659EA8" transform="translate(336,371)"/>
<path d="M0 0 C1 3 1 3 -0.14453125 5.8828125 C-0.69496094 6.95273437 -1.24539063 8.02265625 -1.8125 9.125 C-2.35519531 10.20007813 -2.89789063 11.27515625 -3.45703125 12.3828125 C-5 15 -5 15 -7 16 C-6.34 13.69 -5.68 11.38 -5 9 C-4.34 9 -3.68 9 -3 9 C-2.01 6.03 -1.02 3.06 0 0 Z " fill="#44909D" transform="translate(464,609)"/>
<path d="M0 0 C1.32 0.33 2.64 0.66 4 1 C0.535 3.97 0.535 3.97 -3 7 C-3.66 6.67 -4.32 6.34 -5 6 C-3.35 4.02 -1.7 2.04 0 0 Z " fill="#639DA8" transform="translate(415,307)"/>
<path d="M0 0 C0.26554687 0.57234375 0.53109375 1.1446875 0.8046875 1.734375 C2.05676891 4.1076012 3.4936352 6.12213286 5.125 8.25 C5.93324219 9.30960938 5.93324219 9.30960938 6.7578125 10.390625 C7.16773438 10.92171875 7.57765625 11.4528125 8 12 C4.78956118 10.61811547 2.95063635 9.07578097 0.75 6.375 C0.22921875 5.74335937 -0.2915625 5.11171875 -0.828125 4.4609375 C-1.21484375 3.97882812 -1.6015625 3.49671875 -2 3 C-1 1 -1 1 0 0 Z " fill="#4A929E" transform="translate(369,623)"/>
<path d="M0 0 C0.66 0.33 1.32 0.66 2 1 C-0.25 3.5 -0.25 3.5 -3 6 C-4.32 6 -5.64 6 -7 6 C-2.25 1.125 -2.25 1.125 0 0 Z " fill="#5495A1" transform="translate(384,544)"/>
<path d="M0 0 C3.32851213 2.98418329 5.3205729 5.84562769 7 10 C6.67 10.99 6.34 11.98 6 13 C3 7.25 3 7.25 3 5 C2.01 4.67 1.02 4.34 0 4 C0 2.68 0 1.36 0 0 Z " fill="#48919F" transform="translate(479,705)"/>
<path d="M0 0 C0.33 0.66 0.66 1.32 1 2 C1.66 2 2.32 2 3 2 C3.76411467 5.73567172 4.07174763 8.34811918 3 12 C2.49440092 10.56445975 1.9957251 9.1264798 1.5 7.6875 C1.2215625 6.88699219 0.943125 6.08648438 0.65625 5.26171875 C0 3 0 3 0 0 Z " fill="#49929F" transform="translate(511,710)"/>
<path d="M0 0 C0.66 0.33 1.32 0.66 2 1 C-1.465 3.97 -1.465 3.97 -5 7 C-5.66 6.67 -6.32 6.34 -7 6 C-3.375 1.125 -3.375 1.125 0 0 Z " fill="#4D92A0" transform="translate(337,427)"/>
<path d="M0 0 C0.66 0.33 1.32 0.66 2 1 C-1.465 3.97 -1.465 3.97 -5 7 C-5.66 6.67 -6.32 6.34 -7 6 C-3.375 1.125 -3.375 1.125 0 0 Z " fill="#4D93A0" transform="translate(450,335)"/>
<path d="M0 0 C2.1875 0.3125 2.1875 0.3125 4 1 C2.35 2.32 0.7 3.64 -1 5 C-1.66 4.34 -2.32 3.68 -3 3 C-1.75 1.4375 -1.75 1.4375 0 0 Z " fill="#5D9AA6" transform="translate(298,402)"/>
<path d="M0 0 C0.66 0.33 1.32 0.66 2 1 C-1.465 3.97 -1.465 3.97 -5 7 C-5.66 6.67 -6.32 6.34 -7 6 C-3.375 1.125 -3.375 1.125 0 0 Z " fill="#4B919F" transform="translate(375,396)"/>
<path d="M0 0 C0.66 0.33 1.32 0.66 2 1 C-1.465 3.97 -1.465 3.97 -5 7 C-5.66 6.67 -6.32 6.34 -7 6 C-3.375 1.125 -3.375 1.125 0 0 Z " fill="#4B919F" transform="translate(423,357)"/>
<path d="M0 0 C3.68754757 0.49831724 5.60490662 1.10067643 8 4 C7.01 4.495 7.01 4.495 6 5 C3.98079663 3.69593116 1.98075027 2.36176581 0 1 C0 0.67 0 0.34 0 0 Z " fill="#4E94A1" transform="translate(244,796)"/>
<path d="M0 0 C2.97 1.98 2.97 1.98 6 4 C5.67 4.66 5.34 5.32 5 6 C3.0625 5.25 3.0625 5.25 1 4 C0.25 1.875 0.25 1.875 0 0 Z " fill="#5C9AA5" transform="translate(784,453)"/>
</svg>
